<svg width="924" height="355" viewBox="0 0 924 355" fill="none" xmlns="http://www.w3.org/2000/svg">
<g clip-path="url(#clip0_218_3)">
<path d="M409.584 38.3149C423.963 37.6293 438.359 39.1901 452.255 42.9413C488.572 52.8019 519.4 76.8517 537.797 109.678C540.766 114.868 543.053 120.397 545.244 125.949C556.028 153.267 559.037 183.528 551.202 212.076C545.203 233.935 537.446 249.742 523.135 267.379C519.253 272.159 515.208 276.988 510.641 281.128C507.004 284.425 503.013 287.283 499.073 290.2C495 293.216 491.043 296.311 486.623 298.821C462.196 312.693 431.27 320.52 403.153 317.695C393.255 316.701 383.218 314.195 373.638 311.545C362.206 308.239 338.724 298.598 332.17 288.589C333.826 285.981 336.001 283.47 337.77 280.879C345.574 269.458 343.206 250.979 332.03 242.508C324.979 237.162 314.693 234.293 306.114 237.133C302.75 238.246 299.513 239.972 296.012 240.53C289.113 241.208 283.034 232.226 288.497 226.818C290.685 224.652 296.125 222.999 299.059 222.031C308.169 219.023 316.513 214.075 322.572 206.519C333.629 193.244 337.644 180.635 335.997 163.461C334.181 148.095 324.225 132.619 310.899 124.73C304.277 120.811 292.485 118.211 291.803 109.3C291.567 106.057 292.635 102.855 294.775 100.406C301.268 93.0468 308.544 99.2412 315.79 101.674C319.093 102.796 322.593 103.228 326.069 102.942C331.788 102.538 337.248 100.419 341.744 96.8621C364.255 79.285 339.712 58.285 364.412 47.5277C377.946 41.6333 394.918 39.2368 409.584 38.3149Z" fill="#29498F"/>
<path d="M280.642 130.246C302.958 129.522 321.625 147.044 322.31 169.358C322.999 191.673 305.446 210.31 283.129 210.961C260.863 211.61 242.277 194.108 241.591 171.845C240.905 149.582 258.379 130.969 280.642 130.246Z" fill="#2B7EBE"/>
<path d="M221.141 212.3C239.905 209.928 257.013 223.283 259.265 242.06C261.518 260.837 248.054 277.858 229.261 279.991C210.638 282.105 193.8 268.788 191.568 250.18C189.336 231.571 202.545 214.651 221.141 212.3Z" fill="#2C9AD6"/>
<path d="M203.487 127.855C216.817 126.463 228.748 136.146 230.13 149.475C231.513 162.804 221.823 174.728 208.492 176.102C195.173 177.475 183.261 167.796 181.879 154.479C180.498 141.162 190.17 129.244 203.487 127.855Z" fill="#2C9AD6"/>
<path d="M149.1 143.011C161.543 142.194 172.304 151.592 173.169 164.03C174.034 176.469 164.677 187.266 152.241 188.179C139.736 189.097 128.867 179.679 127.997 167.172C127.127 154.664 136.588 143.832 149.1 143.011Z" fill="#2C9AD6"/>
<path d="M330.401 256.467C334.559 264.698 332.119 274.728 324.645 280.131C317.174 285.534 306.885 284.709 300.368 278.186C293.852 271.662 293.041 261.371 298.453 253.907C303.865 246.443 313.899 244.016 322.126 248.181C325.698 249.99 328.598 252.893 330.401 256.467Z" fill="#2C6FB3"/>
<path d="M322.126 248.181C325.698 249.99 328.598 252.893 330.401 256.467L330.217 256.558C328.165 256.074 323.012 250.166 322.126 248.181Z" fill="#2D6B9D"/>
<path d="M333.424 90.376C325.425 94.9788 315.265 93.0813 309.468 85.9013C303.671 78.7214 303.953 68.3911 310.139 61.5404C316.322 54.69 326.57 53.3537 334.303 58.389C342.04 63.4246 344.964 73.3364 341.202 81.7634C339.583 85.3837 336.863 88.3987 333.424 90.376Z" fill="#2C6FB3"/>
<path d="M333.424 90.376C333.233 90.2349 333.196 89.7858 333.124 89.4773C335.421 87.498 339.29 81.9955 341.202 81.7634C339.583 85.3837 336.863 88.3987 333.424 90.376Z" fill="#2D6B9D"/>
<path d="M238.915 56.9481C249.138 55.5433 258.561 62.7011 259.949 72.9261C261.337 83.1511 254.162 92.5612 243.935 93.9319C233.731 95.2992 224.347 88.1462 222.963 77.9454C221.578 67.7449 228.716 58.3498 238.915 56.9481Z" fill="#2C9AD6"/>
<path d="M173.892 93.0124C183.432 92.9705 191.176 100.717 191.128 110.257C191.081 119.796 183.262 127.466 173.722 127.33C164.308 127.196 156.76 119.502 156.807 110.087C156.853 100.673 164.477 93.0537 173.892 93.0124Z" fill="#2C9AD6"/>
<path d="M152.756 196.127C160.951 193.902 169.398 198.743 171.62 206.939C173.843 215.134 168.998 223.579 160.801 225.798C152.608 228.016 144.168 223.175 141.947 214.984C139.726 206.793 144.565 198.352 152.756 196.127Z" fill="#2C9AD6"/>
<path d="M27.6917 131.719C33.8081 130.781 39.5165 135.006 40.4064 141.129C41.2963 147.252 37.0261 152.927 30.8961 153.769C24.8336 154.601 19.2343 150.389 18.3543 144.334C17.4743 138.278 21.6432 132.646 27.6917 131.719Z" fill="#2C9AD6"/>
<path d="M93.8333 93.2118C97.3516 92.3969 101.036 93.5379 103.478 96.1982C105.92 98.8588 106.742 102.627 105.628 106.063C104.515 109.498 101.64 112.069 98.1018 112.792C92.7287 113.89 87.4713 110.466 86.3033 105.108C85.1353 99.7507 88.4906 94.4492 93.8333 93.2118Z" fill="#2C9AD6"/>
<path d="M86.6222 209.283C96.6188 208.745 100.331 218.675 91.2209 222.742C80.7775 225.609 77.6045 212.538 86.6222 209.283Z" fill="#2C9AD6"/>
<path d="M600.258 221.973C594.501 221.973 589.556 220.757 585.421 218.324C581.286 215.892 578.124 212.203 575.935 207.257C573.746 202.231 572.651 195.907 572.651 188.285C572.651 180.583 573.786 174.259 576.056 169.313C578.408 164.368 581.651 160.678 585.786 158.246C589.921 155.814 594.745 154.598 600.258 154.598C606.42 154.598 611.933 155.976 616.798 158.733C621.743 161.489 625.635 165.381 628.473 170.408C631.392 175.435 632.851 181.394 632.851 188.285C632.851 195.096 631.392 201.014 628.473 206.041C625.635 211.068 621.743 215 616.798 217.838C611.933 220.595 606.42 221.973 600.258 221.973ZM561.584 221V130.761H580.556V168.827L579.34 188.164L579.705 207.622V221H561.584ZM596.974 206.406C600.136 206.406 602.933 205.676 605.366 204.217C607.879 202.758 609.866 200.69 611.325 198.015C612.865 195.258 613.636 192.015 613.636 188.285C613.636 184.475 612.865 181.232 611.325 178.556C609.866 175.88 607.879 173.813 605.366 172.354C602.933 170.894 600.136 170.165 596.974 170.165C593.812 170.165 590.975 170.894 588.461 172.354C585.948 173.813 583.961 175.88 582.502 178.556C581.043 181.232 580.313 184.475 580.313 188.285C580.313 192.015 581.043 195.258 582.502 198.015C583.961 200.69 585.948 202.758 588.461 204.217C590.975 205.676 593.812 206.406 596.974 206.406ZM684.225 221.973C678.469 221.973 673.523 220.757 669.388 218.324C665.253 215.892 662.091 212.203 659.902 207.257C657.713 202.231 656.618 195.907 656.618 188.285C656.618 180.583 657.753 174.259 660.024 169.313C662.375 164.368 665.618 160.678 669.753 158.246C673.888 155.814 678.712 154.598 684.225 154.598C690.387 154.598 695.9 155.976 700.765 158.733C705.711 161.489 709.602 165.381 712.44 170.408C715.359 175.435 716.818 181.394 716.818 188.285C716.818 195.096 715.359 201.014 712.44 206.041C709.602 211.068 705.711 215 700.765 217.838C695.9 220.595 690.387 221.973 684.225 221.973ZM645.551 221V130.761H664.523V168.827L663.307 188.164L663.672 207.622V221H645.551ZM680.941 206.406C684.104 206.406 686.901 205.676 689.333 204.217C691.846 202.758 693.833 200.69 695.292 198.015C696.833 195.258 697.603 192.015 697.603 188.285C697.603 184.475 696.833 181.232 695.292 178.556C693.833 175.88 691.846 173.813 689.333 172.354C686.901 170.894 684.104 170.165 680.941 170.165C677.779 170.165 674.942 170.894 672.428 172.354C669.915 173.813 667.929 175.88 666.469 178.556C665.01 181.232 664.28 184.475 664.28 188.285C664.28 192.015 665.01 195.258 666.469 198.015C667.929 200.69 669.915 202.758 672.428 204.217C674.942 205.676 677.779 206.406 680.941 206.406ZM729.519 221V130.761H748.491V221H729.519ZM798.57 221.973C791.111 221.973 784.543 220.514 778.868 217.595C773.274 214.676 768.936 210.703 765.855 205.676C762.774 200.569 761.234 194.771 761.234 188.285C761.234 181.718 762.734 175.921 765.733 170.894C768.814 165.786 772.99 161.814 778.26 158.976C783.53 156.057 789.489 154.598 796.137 154.598C802.543 154.598 808.299 155.976 813.407 158.733C818.596 161.408 822.69 165.3 825.69 170.408C828.69 175.435 830.19 181.475 830.19 188.529C830.19 189.258 830.149 190.11 830.068 191.082C829.987 191.974 829.906 192.826 829.825 193.636H776.679V182.569H819.853L812.556 185.853C812.556 182.448 811.866 179.488 810.488 176.975C809.11 174.462 807.205 172.516 804.772 171.137C802.34 169.678 799.502 168.948 796.259 168.948C793.016 168.948 790.138 169.678 787.624 171.137C785.192 172.516 783.287 174.502 781.908 177.097C780.53 179.61 779.841 182.61 779.841 186.096V189.015C779.841 192.582 780.611 195.744 782.152 198.501C783.773 201.177 786.003 203.244 788.84 204.703C791.759 206.082 795.165 206.771 799.056 206.771C802.543 206.771 805.583 206.244 808.177 205.19C810.853 204.136 813.285 202.555 815.474 200.447L825.569 211.392C822.569 214.798 818.799 217.433 814.258 219.297C809.718 221.081 804.488 221.973 798.57 221.973ZM842.821 221V155.571H860.942V174.056L858.388 168.705C860.334 164.084 863.455 160.597 867.752 158.246C872.049 155.814 877.279 154.598 883.441 154.598V172.11C882.63 172.029 881.9 171.989 881.252 171.989C880.603 171.908 879.914 171.867 879.184 171.867C873.995 171.867 869.779 173.367 866.536 176.367C863.374 179.286 861.793 183.867 861.793 190.11V221H842.821Z" fill="#29498F"/>
<path d="M383.094 221V135.869H424.687C435.389 135.869 443.416 137.896 448.767 141.95C454.199 146.003 456.915 151.355 456.915 158.003C456.915 162.462 455.82 166.354 453.631 169.678C451.442 172.921 448.442 175.435 444.632 177.218C440.821 179.002 436.443 179.894 431.497 179.894L433.808 174.908C439.159 174.908 443.902 175.799 448.037 177.583C452.172 179.286 455.375 181.84 457.645 185.245C459.996 188.65 461.172 192.826 461.172 197.771C461.172 205.068 458.293 210.784 452.537 214.919C446.78 218.973 438.308 221 427.119 221H383.094ZM402.674 206.163H425.66C430.768 206.163 434.619 205.352 437.213 203.731C439.889 202.028 441.227 199.352 441.227 195.704C441.227 192.136 439.889 189.501 437.213 187.799C434.619 186.015 430.768 185.123 425.66 185.123H401.215V170.773H422.254C427.038 170.773 430.687 169.962 433.2 168.34C435.794 166.638 437.092 164.084 437.092 160.678C437.092 157.354 435.794 154.881 433.2 153.26C430.687 151.557 427.038 150.706 422.254 150.706H402.674V206.163ZM502.357 221.973C496.924 221.973 492.06 220.919 487.763 218.811C483.547 216.703 480.263 213.5 477.912 209.203C475.561 204.825 474.385 199.271 474.385 192.542V155.571H493.357V189.745C493.357 195.177 494.492 199.19 496.762 201.785C499.114 204.298 502.397 205.555 506.613 205.555C509.532 205.555 512.126 204.947 514.397 203.731C516.667 202.433 518.45 200.487 519.748 197.893C521.045 195.217 521.694 191.893 521.694 187.92V155.571H540.666V221H522.666V203.001L525.95 208.23C523.761 212.771 520.518 216.216 516.221 218.568C512.005 220.838 507.383 221.973 502.357 221.973Z" fill="white"/>
</g>
<defs>
<clipPath id="clip0_218_3">
<rect width="924" height="355" fill="white"/>
</clipPath>
</defs>
</svg>
